<svg viewBox="0 0 1200 280" xmlns="http://www.w3.org/2000/svg">
  <defs>
    <linearGradient id="bg6" x1="0" y1="0" x2="1" y2="1">
      <stop offset="0%" stop-color="#0F5132"/>
      <stop offset="100%" stop-color="#0B3D26"/>
    </linearGradient>
  </defs>
  <rect width="1200" height="280" fill="url(#bg6)"/>
  <g stroke="#EDE8DC" stroke-width="1" opacity="0.07">
    <line x1="0" y1="70" x2="1200" y2="70"/><line x1="0" y1="140" x2="1200" y2="140"/><line x1="0" y1="210" x2="1200" y2="210"/>
    <line x1="200" y1="0" x2="200" y2="280"/><line x1="400" y1="0" x2="400" y2="280"/><line x1="600" y1="0" x2="600" y2="280"/>
    <line x1="800" y1="0" x2="800" y2="280"/><line x1="1000" y1="0" x2="1000" y2="280"/>
  </g>
  <circle cx="900" cy="140" r="115" fill="#EDE8DC" opacity="0.05"/>
  <!-- Storefront awning -->
  <g transform="translate(780,70)">
    <path d="M0 30 L20 0 L180 0 L200 30 Z" fill="#C97C4F"/>
    <path d="M0 30 L10 55 L30 55 L40 30 Z M40 30 L50 55 L70 55 L80 30 Z M80 30 L90 55 L110 55 L120 30 Z M120 30 L130 55 L150 55 L160 30 Z M160 30 L170 55 L190 55 L200 30 Z" fill="#EDE8DC" opacity="0.9"/>
    <rect x="15" y="55" width="170" height="95" fill="none" stroke="#C97C4F" stroke-width="4"/>
    <rect x="35" y="95" width="45" height="55" fill="#0B3D26" stroke="#C97C4F" stroke-width="3"/>
    <rect x="120" y="75" width="45" height="45" fill="none" stroke="#EDE8DC" stroke-width="3" opacity="0.7"/>
  </g>
  <!-- Shopping bag with screen element -->
  <g transform="translate(240,80)">
    <path d="M15 40 L25 15 Q35 0 45 0 L75 0 Q85 0 95 15 L105 40 Z" fill="none" stroke="#C97C4F" stroke-width="4" stroke-linejoin="round"/>
    <rect x="0" y="40" width="120" height="110" rx="6" fill="#EDE8DC" fill-opacity="0.92"/>
    <circle cx="60" cy="95" r="26" fill="none" stroke="#0B3D26" stroke-width="4"/>
    <path d="M60 82 v26 M47 95 h26" stroke="#0B3D26" stroke-width="4" stroke-linecap="round"/>
    <line x1="20" y1="135" x2="100" y2="135" stroke="#0B3D26" stroke-width="3" opacity="0.4"/>
  </g>
</svg>
