<svg viewBox="0 0 1200 280" xmlns="http://www.w3.org/2000/svg">
  <defs>
    <linearGradient id="bg5" x1="0" y1="0" x2="1" y2="1">
      <stop offset="0%" stop-color="#0F5132"/>
      <stop offset="100%" stop-color="#0B3D26"/>
    </linearGradient>
  </defs>
  <rect width="1200" height="280" fill="url(#bg5)"/>
  <g stroke="#EDE8DC" stroke-width="1" opacity="0.07">
    <line x1="0" y1="70" x2="1200" y2="70"/><line x1="0" y1="140" x2="1200" y2="140"/><line x1="0" y1="210" x2="1200" y2="210"/>
    <line x1="200" y1="0" x2="200" y2="280"/><line x1="400" y1="0" x2="400" y2="280"/><line x1="600" y1="0" x2="600" y2="280"/>
    <line x1="800" y1="0" x2="800" y2="280"/><line x1="1000" y1="0" x2="1000" y2="280"/>
  </g>
  <circle cx="900" cy="140" r="120" fill="#EDE8DC" opacity="0.05"/>
  <!-- Binary/data dots scattered -->
  <g fill="#EDE8DC" opacity="0.35">
    <circle cx="260" cy="70" r="4"/><circle cx="300" cy="95" r="4"/><circle cx="240" cy="120" r="4"/>
    <circle cx="330" cy="60" r="4"/><circle cx="360" cy="110" r="4"/><circle cx="290" cy="150" r="4"/>
    <circle cx="220" cy="180" r="4"/><circle cx="350" cy="175" r="4"/>
  </g>
  <!-- Large shield with lock -->
  <g transform="translate(800,40)">
    <path d="M100 0 L190 30 L190 100 Q190 170 100 210 Q10 170 10 100 L10 30 Z" fill="none" stroke="#C97C4F" stroke-width="5" stroke-linejoin="round"/>
    <rect x="65" y="95" width="70" height="55" rx="8" fill="#EDE8DC" fill-opacity="0.92"/>
    <path d="M78 95 v-20 a22 22 0 0 1 44 0 v20" fill="none" stroke="#EDE8DC" stroke-width="7" stroke-linecap="round"/>
    <circle cx="100" cy="118" r="8" fill="#0B3D26"/>
    <rect x="96" y="122" width="8" height="16" fill="#0B3D26"/>
  </g>
</svg>
